<?xml version="1.0" encoding="utf-8"?>
<!-- Generator: Adobe Illustrator 18.0.0, SVG Export Plug-In . SVG Version: 6.00 Build 0)  -->
<!DOCTYPE svg PUBLIC "-//W3C//DTD SVG 1.1//EN" "http://www.w3.org/Graphics/SVG/1.1/DTD/svg11.dtd">
<svg version="1.1" id="Layer_1" xmlns="http://www.w3.org/2000/svg" xmlns:xlink="http://www.w3.org/1999/xlink" x="0px" y="0px"
	 viewBox="0 0 64 64" enable-background="new 0 0 64 64" xml:space="preserve">
<g transform="matrix( 1, 0, 0, 1, 0,0) ">
	<g>
		<path id="Layer0_0_1_STROKES" fill="none" stroke="#000000" stroke-width="2" stroke-linecap="round" stroke-linejoin="round" d="
			M21,46.8v-3.3c-0.8-0.6-1.6-1.3-2.4-2c-3.7-3.7-5.5-8.1-5.5-13.2c0-5.2,1.8-9.6,5.5-13.3s8.1-5.5,13.3-5.5s9.6,1.8,13.2,5.5
			c3.7,3.7,5.5,8.1,5.5,13.3c0,5.2-1.8,9.6-5.5,13.2c-0.7,0.7-1.5,1.4-2.3,2v3.3 M30.5,14.6c-5.9,0.7-10.1,4.1-12.6,10.3 M30,52.9
			h8.7 M26.8,56.3h10.1 M24.9,52.9h2.4 M23.5,49.7h10.3 M37,49.7h2.8"/>
	</g>
</g>
</svg>
