
<svg xmlns="http://www.w3.org/2000/svg" version="1.1" xmlns:xlink="http://www.w3.org/1999/xlink" preserveAspectRatio="none" x="0px" y="0px" width="300px" height="300px" viewBox="0 0 300 300">
<defs>
<image id="Screenshot_2015_07_23_17_51_41_png" x="0" y="0" width="406" height="418" xlink:href="./images/Screenshot_2015_07_23_17_51_41_png.png"/>

<path id="Layer1_0_1_STROKES" stroke="#000000" stroke-width="5" stroke-linejoin="round" stroke-linecap="round" fill="none" d="
M 175.1 60.35
L 80.25 60.35
Q 74.2 60.35 74.2 66.4
L 74.2 234.65
Q 74.2 240.65 80.25 240.65
L 223.65 240.65
Q 229.7 240.65 229.7 234.65
L 229.7 111.65 181.1 111.65
Q 175.1 111.65 175.1 105.6
L 175.1 60.35 229.7 111.65
M 181.4 170.35
L 201.8 190 180.7 209.85
M 122.25 167.85
L 102.8 190.2 123.05 210.85
M 158.85 167.85
L 144.15 212.4"/>
</defs>

<g transform="matrix( 1, 0, 0, 1, -33,-65) ">
<use xlink:href="#Screenshot_2015_07_23_17_51_41_png"/>
</g>

<g transform="matrix( 1, 0, 0, 1, 0,0) ">
<use xlink:href="#Layer1_0_1_STROKES"/>
</g>
</svg>
