
<svg xmlns="http://www.w3.org/2000/svg" version="1.1" xmlns:xlink="http://www.w3.org/1999/xlink" preserveAspectRatio="none" x="0px" y="0px" width="64px" height="64px" viewBox="0 0 64 64">
<defs>
<g id="Layer0_0_FILL">
<path fill="#000000" stroke="none" d="
M 64.2 32.1
Q 64.2 18.8 54.8 9.4 45.4 0 32.1 0 18.8 0 9.4 9.4 0 18.8 0 32.1 0 45.4 9.4 54.8 18.8 64.2 32.1 64.2 45.4 64.2 54.8 54.8 64.2 45.4 64.2 32.1
M 50.6 28.35
Q 50.6 36.1 45.1 41.6 44 42.7 42.8 43.6
L 42.8 46.85 42.8 43.6
Q 44 42.7 45.1 41.6 50.6 36.1 50.6 28.35 50.6 20.6 45.1 15.1 39.6 9.6 31.85 9.6 24.1 9.6 18.6 15.1 13.1 20.6 13.1 28.35 13.1 36.1 18.6 41.6 19.7 42.7 20.95 43.6
L 20.95 46.85 20.95 43.6
Q 19.7 42.7 18.6 41.6 13.1 36.1 13.1 28.35 13.1 20.6 18.6 15.1 24.1 9.6 31.85 9.6 39.6 9.6 45.1 15.1 50.6 20.6 50.6 28.35
M 30.55 14.55
Q 21.75 15.6 17.95 24.85 21.75 15.6 30.55 14.55
M 30 52.9
L 38.7 52.9 30 52.9
M 26.75 56.25
L 36.85 56.25 26.75 56.25
M 24.85 52.9
L 27.3 52.9 24.85 52.9
M 23.5 49.65
L 33.75 49.65 23.5 49.65
M 36.95 49.65
L 39.75 49.65 36.95 49.65 Z"/>
</g>

<path id="Layer0_0_1_STROKES" stroke="#FFFFFF" stroke-width="2" stroke-linejoin="round" stroke-linecap="round" fill="none" d="
M 20.95 46.85
L 20.95 43.6
Q 19.7 42.7 18.6 41.6 13.1 36.1 13.1 28.35 13.1 20.6 18.6 15.1 24.1 9.6 31.85 9.6 39.6 9.6 45.1 15.1 50.6 20.6 50.6 28.35 50.6 36.1 45.1 41.6 44 42.7 42.8 43.6
L 42.8 46.85
M 30.55 14.55
Q 21.75 15.6 17.95 24.85
M 30 52.9
L 38.7 52.9
M 26.75 56.25
L 36.85 56.25"/>

<path id="Layer0_0_2_STROKES" stroke="#99CC33" stroke-width="2" stroke-linejoin="round" stroke-linecap="round" fill="none" d="
M 23.5 49.65
L 33.75 49.65"/>

<path id="Layer0_0_3_STROKES" stroke="#FF3333" stroke-width="2" stroke-linejoin="round" stroke-linecap="round" fill="none" d="
M 24.85 52.9
L 27.3 52.9
M 36.95 49.65
L 39.75 49.65"/>
</defs>

<g transform="matrix( 1, 0, 0, 1, 0,0) ">
<use xlink:href="#Layer0_0_FILL"/>

<use xlink:href="#Layer0_0_1_STROKES"/>

<use xlink:href="#Layer0_0_2_STROKES"/>

<use xlink:href="#Layer0_0_3_STROKES"/>
</g>
</svg>
