
<svg xmlns="http://www.w3.org/2000/svg" version="1.1" xmlns:xlink="http://www.w3.org/1999/xlink" preserveAspectRatio="none" x="0px" y="0px" width="64px" height="64px" viewBox="0 0 64 64">
<defs>
<path id="Layer0_0_1_STROKES" stroke="#000000" stroke-width="1" stroke-linejoin="round" stroke-linecap="round" fill="none" d="
M 20.95 46.85
L 20.95 43.6
Q 19.7 42.7 18.6 41.6 13.1 36.1 13.1 28.35 13.1 20.6 18.6 15.1 24.1 9.6 31.85 9.6 39.6 9.6 45.1 15.1 50.6 20.6 50.6 28.35 50.6 36.1 45.1 41.6 44 42.7 42.8 43.6
L 42.8 46.85
M 30.55 14.55
Q 21.75 15.6 17.95 24.85
M 30 52.9
L 38.7 52.9
M 26.75 56.25
L 36.85 56.25
M 24.85 52.9
L 27.3 52.9
M 23.5 49.65
L 33.75 49.65
M 36.95 49.65
L 39.75 49.65"/>
</defs>

<g transform="matrix( 1, 0, 0, 1, 0,0) ">
<use xlink:href="#Layer0_0_1_STROKES"/>
</g>
</svg>
