
<svg xmlns="http://www.w3.org/2000/svg" version="1.1" xmlns:xlink="http://www.w3.org/1999/xlink" preserveAspectRatio="none" x="0px" y="0px" width="300px" height="300px" viewBox="0 0 300 300">
<defs>
<image id="Screenshot_2015_07_23_17_49_55_png" x="0" y="0" width="560" height="444" xlink:href="./images/Screenshot_2015_07_23_17_49_55_png.png"/>

<g id="Layer1_0_FILL">
<path fill="#000000" stroke="none" d="
M 212.05 194.35
Q 210.55 195.85 210.55 197.95 210.55 200.1 212.05 201.6 213.55 203.1 215.65 203.1 217.8 203.1 219.3 201.6 220.8 200.1 220.8 197.95 220.8 195.85 219.3 194.35 217.8 192.8 215.65 192.8 213.55 192.8 212.05 194.35 Z"/>
</g>

<path id="Layer1_0_1_STROKES" stroke="#000000" stroke-width="5" stroke-linejoin="round" stroke-linecap="round" fill="none" d="
M 166.25 169
L 72.65 169
Q 66.2 169 66.2 162.55
L 66.2 78.95
Q 66.2 72.5 72.65 72.5
L 221.8 72.5
Q 228.25 72.5 228.25 78.95
L 228.25 91.95
M 188.65 114.1
L 240.4 114.1
Q 246.85 114.1 246.85 120.55
L 246.85 213
Q 246.85 219.5 240.4 219.5
L 188.65 219.5
Q 182.2 219.5 182.2 213
L 182.2 120.55
Q 182.2 114.1 188.65 114.1 Z"/>

<path id="Layer0_0_1_STROKES" stroke="#000000" stroke-width="5" stroke-linejoin="round" stroke-linecap="round" fill="none" d="
M 164.5 216.8
L 49.65 216.8
Q 43.15 216.8 43.15 210.35
L 43.15 195.4 164.5 195.4"/>
</defs>

<g transform="matrix( 1, 0, 0, 1, -75,-85) ">
<use xlink:href="#Screenshot_2015_07_23_17_49_55_png"/>
</g>

<g transform="matrix( 1, 0, 0, 1, 0,0) ">
<use xlink:href="#Layer1_0_FILL"/>

<use xlink:href="#Layer1_0_1_STROKES"/>
</g>

<g transform="matrix( 1, 0, 0, 1, 0,0) ">
<use xlink:href="#Layer0_0_1_STROKES"/>
</g>
</svg>
