
<svg xmlns="http://www.w3.org/2000/svg" version="1.1" xmlns:xlink="http://www.w3.org/1999/xlink" preserveAspectRatio="none" x="0px" y="0px" width="300px" height="300px" viewBox="0 0 300 300">
<defs>
<image id="Screenshot_2015_07_23_17_50_51_png" x="0" y="0" width="376" height="438" xlink:href="./images/Screenshot_2015_07_23_17_50_51_png.png"/>

<path id="Layer0_0_1_STROKES" stroke="#000000" stroke-width="5" stroke-linejoin="round" stroke-linecap="round" fill="none" d="
M 226.15 118.95
Q 226.15 135.9 214.1 147.95 202.1 159.95 185.15 159.95 168.2 159.95 156.2 147.95 144.15 135.9 144.15 118.95 144.15 102 156.2 90 168.2 78 185.15 78 202.1 78 214.1 90 226.15 102 226.15 118.95 Z
M 119.1 140.4
Q 119.1 150.45 112.05 157.5 104.95 164.6 94.9 164.6 84.85 164.6 77.75 157.5 70.7 150.45 70.7 140.4 70.7 130.35 77.75 123.25 84.85 116.15 94.9 116.15 104.95 116.15 112.05 123.25 119.1 130.35 119.1 140.4 Z
M 90.25 238.2
L 50.2 238.2
Q 39.5 192.75 100.5 192.55
M 250.45 236.3
L 113.55 236.3
Q 109.35 180.15 183.55 179.25 257.8 178.2 250.45 236.3 Z"/>
</defs>

<g transform="matrix( 1, 0, 0, 1, 87.45,0) ">
<use xlink:href="#Screenshot_2015_07_23_17_50_51_png"/>
</g>

<g transform="matrix( 1, 0, 0, 1, 0,0) ">
<use xlink:href="#Layer0_0_1_STROKES"/>
</g>
</svg>
